<?xml version="1.0" encoding="UTF-8" standalone="no"?>
<!-- Created with Inkscape (http://www.inkscape.org/) -->

<svg
   width="80mm"
   height="80mm"
   viewBox="0 0 80 80"
   version="1.1"
   id="svg1"
   inkscape:version="1.3.2 (091e20ef0f, 2023-11-25, custom)"
   sodipodi:docname="logo.svg"
   xmlns:inkscape="http://www.inkscape.org/namespaces/inkscape"
   xmlns:sodipodi="http://sodipodi.sourceforge.net/DTD/sodipodi-0.dtd"
   xmlns="http://www.w3.org/2000/svg"
   xmlns:svg="http://www.w3.org/2000/svg">
  <sodipodi:namedview
     id="namedview1"
     pagecolor="#ffffff"
     bordercolor="#666666"
     borderopacity="1.0"
     inkscape:showpageshadow="2"
     inkscape:pageopacity="0.0"
     inkscape:pagecheckerboard="0"
     inkscape:deskcolor="#d1d1d1"
     inkscape:document-units="mm"
     inkscape:zoom="1.104894"
     inkscape:cx="-109.06023"
     inkscape:cy="204.09197"
     inkscape:window-width="2048"
     inkscape:window-height="1083"
     inkscape:window-x="0"
     inkscape:window-y="0"
     inkscape:window-maximized="1"
     inkscape:current-layer="g6" />
  <defs
     id="defs1" />
  <g
     inkscape:label="Layer 1"
     inkscape:groupmode="layer"
     id="layer1"
     transform="translate(-48.710731,-19.372401)">
    <rect
       style="fill:#22c92a;fill-opacity:1;stroke:none;stroke-width:3;stroke-linecap:butt;stroke-linejoin:round;stroke-dasharray:none;stroke-opacity:1"
       id="rect11"
       width="15.551655"
       height="13.067206"
       x="92.036278"
       y="34.559559" />
    <rect
       style="fill:#22c92a;fill-opacity:1;stroke:none;stroke-width:3;stroke-linecap:butt;stroke-linejoin:round;stroke-dasharray:none;stroke-opacity:1"
       id="rect10"
       width="16.240116"
       height="8.3737879"
       x="70.049942"
       y="37.990643" />
    <rect
       style="fill:#22c92a;fill-opacity:1;stroke:none;stroke-width:3;stroke-linecap:butt;stroke-linejoin:round;stroke-dasharray:none;stroke-opacity:1"
       id="rect7"
       width="18.41754"
       height="16.591202"
       x="80.4841"
       y="35.17886"
       ry="0" />
    <rect
       style="fill:#22c92a;fill-opacity:1;stroke:none;stroke-width:3;stroke-linecap:butt;stroke-linejoin:round;stroke-dasharray:none;stroke-opacity:1"
       id="rect8"
       width="8.2619791"
       height="8.298358"
       x="73.690842"
       y="31.410999" />
    <rect
       style="fill:#22c92a;fill-opacity:1;stroke:none;stroke-width:3;stroke-linecap:butt;stroke-linejoin:round;stroke-dasharray:none;stroke-opacity:1"
       id="rect9"
       width="8.8546247"
       height="6.6308813"
       x="95.661713"
       y="31.54924" />
    <g
       id="g6"
       transform="translate(-14.663074,-48.123515)">
      <path
         d="m 91.420629,99.169227 -1.64022,-0.35648 -2.0497,-1.01154 -2.0497,-1.01155 -2.42273,-2.38125 -2.42273,-2.38125 -1.13067,-1.68835 c -0.62187,-0.92859 -1.60007,-2.69002 -2.17378,-3.9143 l -1.04312,-2.22594 -0.66122,-2.568 -0.66123,-2.56799 -0.15507,-4.20277 -0.15506,-4.20276 1.5621,0.17693 c 0.85916,0.0973 2.93132,0.3667 4.60481,0.59863 l 3.04271,0.4217 1.99668,0.5975 c 1.09817,0.32863 2.88411,0.96771 3.96875,1.42019 l 1.97207,0.8227 2.20257,1.41025 2.20257,1.41025 1.95617,1.9379 c 1.07589,1.06584 2.270801,2.39192 2.655361,2.94684 l 0.6992,1.00893 -0.0426,5.49107 c -0.0234,3.02009 -0.0664,5.51272 -0.0954,5.53919 -0.029,0.0265 -0.99005,-0.83801 -2.135591,-1.92107 l -2.08279,-1.9692 -1.25232,-3.09731 c -0.68878,-1.70352 -1.46249,-3.73671 -1.71936,-4.51821 l -0.46704,-1.4209 -0.49733,-0.49733 -0.49733,-0.49732 h -0.63315 -0.63315 l -0.1606,0.41851 c -0.0883,0.23018 -0.1606,0.87554 -0.1606,1.43413 v 1.01561 l 0.82297,2.33618 c 0.45263,1.28491 0.99939,2.67892 1.21501,3.09782 l 0.39205,0.76162 -1.01658,-0.23246 -1.01657,-0.23246 -2.11667,0.007 -2.11667,0.007 -0.92604,0.41227 -0.92604,0.41226 0.93846,0.94293 0.93845,0.94292 1.04592,0.29038 1.04592,0.29038 2.57816,0.002 2.57815,0.002 2.44893,2.28165 c 1.34691,1.25491 3.025171,2.74319 3.729461,3.30729 l 1.28053,1.02544 h 1.13118 1.13118 l 0.76329,-0.58345 c 0.41981,-0.32089 2.07297,-1.79588 3.6737,-3.27775 l 2.91042,-2.69431 3.175,-0.0957 3.175,-0.0957 1.25677,-0.73875 1.25677,-0.73876 v -0.50558 -0.50557 l -0.99219,-0.28387 c -0.5457,-0.15613 -1.70656,-0.35125 -2.57968,-0.43361 l -1.5875,-0.14975 -1.18346,0.27401 c -0.65089,0.15071 -1.21307,0.24438 -1.24928,0.20818 -0.0362,-0.0362 0.26439,-0.95225 0.66799,-2.03565 0.4036,-1.0834 0.94573,-2.72665 1.20474,-3.65167 l 0.47092,-1.68185 -0.15792,-0.62922 -0.15793,-0.62922 -0.69838,-0.17528 -0.69838,-0.17529 -0.40439,0.25509 c -0.57206,0.36084 -0.64436,0.52149 -2.42072,5.37909 l -1.59646,4.36562 -2.18004,2.04545 -2.18003,2.04544 -0.0722,-4.78651 -0.0722,-6.222822 1.28407,-1.283638 1.16961,-1.45521 1.16961,-1.45521 1.83246,-1.49691 1.83245,-1.4969 2.028,-1.09362 c 2.68061,-1.44554 4.8256,-2.27229 7.97671,-3.07449 2.66229,-0.67775 7.28737,-1.42355 8.88174,-1.43219 l 0.89479,-0.005 -0.14485,4.16719 -0.14486,4.16718 -0.55866,2.24896 c -0.78829,3.17338 -1.66417,5.3507 -3.16944,7.87876 l -1.30411,2.19022 -1.36203,1.57222 -1.36203,1.57221 -1.6343,1.23662 -1.63429,1.23661 -1.85208,0.87957 c -1.01865,0.48377 -2.56171,1.06193 -3.42903,1.28481 l -1.57694,0.40523 -10.32931,-0.021 -10.329311,-0.021 z"
         style="fill:#000000;stroke-width:0.264583"
         id="path1"
         sodipodi:nodetypes="ccccccscccccccscsscccsscccscssccccccscsccccccccccccccsccccsscccccccsscsssscccccssccccccccccssccccsscccccsscccc" />
      <rect
         style="fill:#eece0c;fill-opacity:1;stroke:#000000;stroke-width:4.87259;stroke-linecap:butt;stroke-linejoin:round;stroke-dasharray:none"
         id="rect1"
         width="50.903759"
         height="40.138985"
         x="77.669403"
         y="101.75951" />
      <rect
         style="fill:#00a4e6;fill-opacity:1;stroke:#00a4e6;stroke-width:1;stroke-linecap:butt;stroke-linejoin:round;stroke-dasharray:none;stroke-opacity:1"
         id="rect3"
         width="31.324179"
         height="3.7898543"
         x="87.66671"
         y="107.16989"
         rx="0"
         ry="0" />
      <circle
         style="fill:#000000;fill-opacity:1;stroke:none;stroke-width:4.99999;stroke-linecap:butt;stroke-linejoin:round;stroke-dasharray:none"
         id="path3"
         cx="91.434319"
         cy="133.0804"
         r="3.1809776" />
      <circle
         style="fill:#000000;fill-opacity:1;stroke:none;stroke-width:4.99999;stroke-linecap:butt;stroke-linejoin:round;stroke-dasharray:none"
         id="path3-84"
         cx="115.17381"
         cy="133.20003"
         r="3.1809776" />
      <ellipse
         style="fill:#000000;fill-opacity:1;stroke:none;stroke-width:4.99999;stroke-linecap:butt;stroke-linejoin:round;stroke-dasharray:none"
         id="path4"
         cx="103.09454"
         cy="133.22607"
         rx="6.4594722"
         ry="2.9230385" />
      <rect
         style="fill:#000000;fill-opacity:1;stroke:#000000;stroke-width:3;stroke-linecap:butt;stroke-linejoin:round;stroke-dasharray:none;stroke-opacity:1"
         id="rect6"
         width="6.1863976"
         height="1.531221"
         x="89.169319"
         y="115.62209" />
      <rect
         style="fill:#000000;fill-opacity:1;stroke:#000000;stroke-width:3;stroke-linecap:butt;stroke-linejoin:round;stroke-dasharray:none;stroke-opacity:1"
         id="rect6-6"
         width="6.1863976"
         height="1.531221"
         x="100.13343"
         y="115.62209" />
      <rect
         style="fill:#000000;fill-opacity:1;stroke:#000000;stroke-width:3;stroke-linecap:butt;stroke-linejoin:round;stroke-dasharray:none;stroke-opacity:1"
         id="rect6-3"
         width="6.1863976"
         height="1.531221"
         x="111.09754"
         y="115.62209" />
      <rect
         style="fill:#000000;fill-opacity:1;stroke:#000000;stroke-width:3;stroke-linecap:butt;stroke-linejoin:round;stroke-dasharray:none;stroke-opacity:1"
         id="rect6-1"
         width="6.1863976"
         height="1.531221"
         x="89.325981"
         y="123.44308" />
      <rect
         style="fill:#000000;fill-opacity:1;stroke:#000000;stroke-width:3;stroke-linecap:butt;stroke-linejoin:round;stroke-dasharray:none;stroke-opacity:1"
         id="rect6-6-5"
         width="6.1863976"
         height="1.531221"
         x="100.29009"
         y="123.44308" />
      <rect
         style="fill:#000000;fill-opacity:1;stroke:#000000;stroke-width:3;stroke-linecap:butt;stroke-linejoin:round;stroke-dasharray:none;stroke-opacity:1"
         id="rect6-3-5"
         width="6.1863976"
         height="1.531221"
         x="111.2542"
         y="123.44308" />
    </g>
  </g>
</svg>
